<svg xmlns="http://www.w3.org/2000/svg" width="24" height="24" viewBox="0 0 24 24"><path fill="currentColor" d="M6.964 3h10.072a3.5 3.5 0 004.445 2.86A3.5 3.5 0 0118 9H6a3.5 3.5 0 01-3.482-3.14A3.5 3.5 0 006.964 3M16.9 6.658A5.4 5.4 0 0115.59 5H8.411A5.4 5.4 0 017.1 6.658 6 6 0 016.667 7h10.666a6 6 0 01-.434-.342M21.5 11.5c.538 0 1.042-.142 1.479-.39q.021.192.021.39a3.5 3.5 0 01-2 3.163V21h-7v-2a2 2 0 10-4 0v2H3v-6.336a3.5 3.5 0 01-1.979-3.553 3 3 0 004.077-1.11h13.803a3 3 0 002.599 1.5m-2.537 1.309a5 5 0 01-1.038-.81H6.075q-.457.467-1.038.81-.304.18-.622.312L5 13.4V19h3q0-1.657 1.172-2.828A3.85 3.85 0 0112 15q1.657 0 2.828 1.172A3.85 3.85 0 0116 19h3v-5.6l.585-.278a5 5 0 01-.622-.312"/></svg>