<svg xmlns="http://www.w3.org/2000/svg" width="24" height="24" viewBox="0 0 24 24"><path fill="currentColor" d="M11 17.25A4.25 4.25 0 116.75 13H11zM17.25 13A4.25 4.25 0 1113 17.25V13zm-10.5 2A2.25 2.25 0 109 17.25V15zM15 17.25A2.25 2.25 0 1017.25 15H15zM6.75 2.5A4.25 4.25 0 0111 6.75V11H6.75a4.25 4.25 0 110-8.5m10 .34a.538.538 0 011 0l.27.648a4.64 4.64 0 002.391 2.47l.762.34a.563.563 0 010 1.022l-.808.359a4.64 4.64 0 00-2.357 2.39l-.262.6c-.192.44-.8.44-.992 0l-.262-.6a4.64 4.64 0 00-2.357-2.39l-.808-.359a.563.563 0 010-1.022l.762-.34a4.64 4.64 0 002.391-2.47zm-10 1.66a2.25 2.25 0 000 4.5H9V6.75A2.25 2.25 0 006.75 4.5"/></svg>