<svg xmlns="http://www.w3.org/2000/svg" width="24" height="24" viewBox="0 0 24 24"><path fill="currentColor" d="M9.204 2.399a9.98 9.98 0 017.796.94 9.98 9.98 0 014.712 6.282A9.97 9.97 0 0120.66 17a9.97 9.97 0 01-5.865 4.601A9.98 9.98 0 017 20.66a9.97 9.97 0 01-4.712-6.28A9.97 9.97 0 013.339 7a9.97 9.97 0 015.865-4.601m6.795 2.673a7.96 7.96 0 00-5.355-.956A9.96 9.96 0 019.402 10.5a9.96 9.96 0 01-4.907 4.266 7.96 7.96 0 003.504 4.162 7.96 7.96 0 005.356.954 9.96 9.96 0 011.243-6.383 9.96 9.96 0 014.906-4.267A7.96 7.96 0 0016 5.072m3.962 6.138a7.96 7.96 0 00-3.631 3.29 7.96 7.96 0 00-1.034 4.789 7.96 7.96 0 003.632-3.29 7.96 7.96 0 001.033-4.79M8.703 4.71A7.96 7.96 0 005.072 8a7.96 7.96 0 00-1.033 4.789 7.96 7.96 0 003.63-3.29 7.96 7.96 0 001.034-4.79"/></svg>