<svg xmlns="http://www.w3.org/2000/svg" width="24" height="24" viewBox="0 0 24 24"><path fill="currentColor" d="M17 3.34a9.96 9.96 0 014.428 5.331 9.98 9.98 0 00-6.83 4.829 9.98 9.98 0 00-.766 8.328A9.96 9.96 0 017 20.66a9.96 9.96 0 01-4.427-5.332 9.98 9.98 0 006.83-4.828 9.98 9.98 0 00.767-8.329A9.96 9.96 0 0117 3.34m-8.752-.607A7.98 7.98 0 017.67 9.5a7.98 7.98 0 01-5.57 3.883A9.95 9.95 0 013.34 7a9.96 9.96 0 014.908-4.267m13.654 7.883A9.95 9.95 0 0120.66 17a9.95 9.95 0 01-4.908 4.266 7.98 7.98 0 01.578-6.766 7.98 7.98 0 015.57-3.884"/></svg>