<svg xmlns="http://www.w3.org/2000/svg" width="24" height="24" viewBox="0 0 24 24"><path fill="currentColor" d="M15.488 3.33a4 4 0 014.899 2.83l2.459 9.175a4.5 4.5 0 11-8.842 1.372 7 7 0 01-4.01 0 4.5 4.5 0 11-8.84-1.372L3.61 6.16a4 4 0 017.86.87 5 5 0 011.055 0 4 4 0 012.962-3.699M6.146 14.085a2.5 2.5 0 10-1.294 4.83 2.5 2.5 0 001.294-4.83m14.69 1.525a2.5 2.5 0 10.132.493l-.054-.25zm-2.38-8.933a2 2 0 00-3.908.835l.043.2.022.103.32 2.029-1.974.313-.167-1.051a3 3 0 00-1.587 0l-.166 1.05-1.975-.312.257-1.626.064-.403.021-.103a2 2 0 10-3.863-1.035l-1.491 5.562a4.5 4.5 0 012.612-.086 4.5 4.5 0 012.743 2.12c.756.46 1.641.727 2.592.727s1.835-.268 2.591-.727a4.5 4.5 0 012.744-2.12 4.5 4.5 0 012.611.085z"/></svg>