<svg xmlns="http://www.w3.org/2000/svg" width="24" height="24" viewBox="0 0 24 24"><path fill="currentColor" d="M7 6q.001.357.115.67a1 1 0 01-1 1.333L6 8a2 2 0 00-1.491 3.333 1 1 0 010 1.334 2 2 0 00.864 3.233 1 1 0 01.67 1.135 2.5 2.5 0 104.932.824q.009-.063.025-.123V6a2 2 0 10-4 0m6 11.736q.016.06.025.122a2.5 2.5 0 104.932-.823 1 1 0 01.67-1.135 2 2 0 00.864-3.233 1 1 0 010-1.334 2 2 0 00-1.607-3.33 1 1 0 01-.999-1.333q.113-.313.115-.67a2 2 0 10-4 0zM9 2a4 4 0 013 1.354 4 4 0 016.998 2.771A4.002 4.002 0 0121.465 12 3.997 3.997 0 0120 17.465v.035a4.5 4.5 0 01-8 2.828A4.5 4.5 0 014 17.5v-.035A3.997 3.997 0 012.535 12a4.002 4.002 0 012.467-5.874L5 6a4 4 0 014-4"/></svg>