<svg xmlns="http://www.w3.org/2000/svg" width="24" height="24" viewBox="0 0 24 24"><path fill="currentColor" d="m4.929 2.929 1.414 1.414A7.98 7.98 0 004 10c0 2.21.895 4.21 2.343 5.657L4.93 17.07A9.97 9.97 0 012 10a9.97 9.97 0 012.929-7.071m14.142 0A9.97 9.97 0 0122 10a9.97 9.97 0 01-2.929 7.071l-1.414-1.414A7.98 7.98 0 0020 10c0-2.21-.895-4.21-2.343-5.657zM7.757 5.757l1.415 1.415A4 4 0 008 10c0 1.105.448 2.105 1.172 2.829l-1.415 1.414A5.98 5.98 0 016 10c0-1.657.672-3.157 1.757-4.243m8.486 0A5.98 5.98 0 0118 10a5.98 5.98 0 01-1.757 4.243l-1.415-1.415A4 4 0 0016 10a4 4 0 00-1.172-2.828zM12 12a2 2 0 110-4 2 2 0 010 4m-1 2h2v8h-2z"/></svg>