<svg xmlns="http://www.w3.org/2000/svg" width="24" height="24" viewBox="0 0 24 24"><path fill="currentColor" d="m4.713 7.128-.246.566a.506.506 0 01-.934 0l-.246-.566a4.36 4.36 0 00-2.22-2.25l-.759-.339a.53.53 0 010-.963l.717-.319A4.37 4.37 0 003.276.931L3.53.32a.506.506 0 01.942 0l.253.61a4.37 4.37 0 002.25 2.327l.718.32a.53.53 0 010 .962l-.76.338a4.36 4.36 0 00-2.219 2.251m13.515-4.757-4.94 3.842c-3.946-.974-7.73 1.333-8.788 5.284-.102.38-.134.765-.167 1.169-.115 1.394-.247 3.005-3.333 5.33 2.5 1.5 7 3.002 10.502 3.002a7.505 7.505 0 007.283-9.291l3.84-4.938a1 1 0 00-.082-1.321L19.55 2.454a1 1 0 00-1.321-.083m-1.333 5.914a8 8 0 00-.194-.194l-1.124-1.124 3.182-2.475 1.746 1.746L18.03 9.42z"/></svg>