<svg xmlns="http://www.w3.org/2000/svg" width="24" height="24" viewBox="0 0 24 24"><path fill="currentColor" d="M19 21H5v1a1 1 0 01-1 1H3a1 1 0 01-1-1v-9l2.417-4.029A2 2 0 016.132 8h11.736a2 2 0 011.715.971L22 13v9a1 1 0 01-1 1h-1a1 1 0 01-1-1zM4.332 13h15.336l-1.8-3H6.132zM6.5 18a1.5 1.5 0 100-3 1.5 1.5 0 000 3m11 0a1.5 1.5 0 100-3 1.5 1.5 0 000 3M5.44 3.44 6.5 2.378l1.06 1.06a1.5 1.5 0 11-2.121 0m5.5 0L12 2.378l1.06 1.06a1.5 1.5 0 11-2.121 0m5.5 0 1.06-1.061 1.06 1.06a1.5 1.5 0 11-2.121 0"/></svg>