<svg xmlns="http://www.w3.org/2000/svg" width="24" height="24" viewBox="0 0 24 24"><path fill="currentColor" d="M12 2c.906 0 1.783.122 2.617.348a6 6 0 007.294 8.339q.087.645.089 1.313c0 5.523-4.477 10-10 10H2l2.929-2.929A9.97 9.97 0 012 12C2 6.477 6.477 2 12 2M8 13a4 4 0 008 0zM19.53 1.32a.507.507 0 01.94 0l.254.61a4.37 4.37 0 002.25 2.327l.717.32a.53.53 0 010 .962l-.758.338a4.36 4.36 0 00-2.22 2.25l-.246.566a.506.506 0 01-.934 0l-.247-.565a4.36 4.36 0 00-2.219-2.251l-.76-.338a.53.53 0 010-.963l.718-.32a4.37 4.37 0 002.251-2.325z"/></svg>