<svg xmlns="http://www.w3.org/2000/svg" width="24" height="24" viewBox="0 0 24 24"><path fill="currentColor" d="m10.365 19.833 1.93-3.342q-.147.009-.295.009a4.5 4.5 0 01-3.94-2.325L4.795 8.52a8.003 8.003 0 005.57 11.313m2.225.146A8 8 0 0019.602 9.5h-3.86c.479.715.758 1.575.758 2.5 0 .848-.234 1.64-.642 2.318zm1.553-6.691.022-.038a2.5 2.5 0 10-4.354-.042l.024.042a2.5 2.5 0 004.308.037m-8.108-6.62 1.928 3.34A4.5 4.5 0 0112 7.5h6.615A7.99 7.99 0 0012 4a7.98 7.98 0 00-5.965 2.669M12 22C6.477 22 2 17.523 2 12S6.477 2 12 2s10 4.477 10 10-4.477 10-10 10"/></svg>