<svg xmlns="http://www.w3.org/2000/svg" width="24" height="24" viewBox="0 0 24 24"><path fill="currentColor" d="m20.467 8.694.246-.566a4.36 4.36 0 012.22-2.25l.759-.339a.53.53 0 000-.963l-.717-.319a4.37 4.37 0 01-2.251-2.326l-.253-.611a.506.506 0 00-.942 0l-.253.61a4.37 4.37 0 01-2.25 2.327l-.718.32a.53.53 0 000 .962l.76.338a4.36 4.36 0 012.219 2.251l.246.566c.18.414.753.414.934 0M14.307 3h.034A6 6 0 0014 5c0 .701.12 1.374.341 2h-2.343zM20 11v8H4V6.46L5.998 3H2.992A1 1 0 002 3.993v16.014c0 .548.444.993.992.993h18.016a1 1 0 00.992-.993V11zM8.307 3 5.998 7h3.69l2.31-4z"/></svg>