<svg xmlns="http://www.w3.org/2000/svg" width="24" height="24" viewBox="0 0 24 24"><path fill="currentColor" d="m17.713 10.128-.246.566a.506.506 0 01-.934 0l-.246-.566a4.36 4.36 0 00-2.22-2.25l-.759-.339a.53.53 0 010-.963l.717-.319a4.37 4.37 0 002.251-2.326l.253-.611a.506.506 0 01.942 0l.253.61a4.37 4.37 0 002.25 2.327l.718.32a.53.53 0 010 .962l-.76.338a4.36 4.36 0 00-2.219 2.251M2.828 12l4.243 4.243-1.414 1.414L0 12l5.657-5.657L7.07 7.757zm15.515 5.657L24 12l-2.83-2.828-1.414 1.414L21.171 12l-4.242 4.243z"/></svg>