<svg xmlns="http://www.w3.org/2000/svg" width="24" height="24" viewBox="0 0 24 24"><path fill="currentColor" d="M15.511 7.3q.578.25 1.152.506-.043.113-.091.221a7 7 0 00-5.102 2.945 5 5 0 114.217-8.35C14.705 3.053 14 3.897 14 5c0 .994.601 1.904 1.511 2.3m-2.357 10.646a7 7 0 000-5.89 5 5 0 110 5.89m-6.88-7.92a7 7 0 005.1 2.947 5 5 0 11-5.1-2.946m10.602-4.313-.565-.246a.506.506 0 010-.934l.565-.246a4.36 4.36 0 002.251-2.22l.338-.759a.53.53 0 01.963 0l.32.717a4.37 4.37 0 002.326 2.251l.596.253a.506.506 0 010 .942l-.596.253a4.37 4.37 0 00-2.327 2.25l-.319.718a.53.53 0 01-.963 0l-.338-.76a4.36 4.36 0 00-2.25-2.219"/></svg>