<svg xmlns="http://www.w3.org/2000/svg" width="24" height="24" viewBox="0 0 24 24"><path fill="currentColor" d="M6.007 7.297A6 6 0 0115.6 2.2l-1.2 1.6a4.02 4.02 0 00-3.206-.718 4.001 4.001 0 00.287 7.885 5.996 5.996 0 017.849-1.663A6 6 0 1112 18.655a6 6 0 11-5.764-9.983 6 6 0 01-.226-1.33zm1.143 3.236a4 4 0 104.215 2.434 6 6 0 01-1.252-.27 6 6 0 01-2.963-2.164m6.004 6.401a4 4 0 100-4.868 6 6 0 01.43 1.413 6 6 0 01-.43 3.455M18.577 7c.289.334.529.714.71 1.128l.246.566c.18.414.753.414.934 0l.246-.566a4.36 4.36 0 012.22-2.25l.737-.339a.53.53 0 000-.963l-.695-.319a4.37 4.37 0 01-2.251-2.326l-.253-.611a.506.506 0 00-.942 0l-.253.61q-.12.29-.276.555a4.34 4.34 0 01-1.975 1.772l-.717.32a.53.53 0 000 .962l.76.338A4.3 4.3 0 0118.578 7"/></svg>