<svg xmlns="http://www.w3.org/2000/svg" width="24" height="24" viewBox="0 0 24 24"><path fill="currentColor" d="M16.33 13.497a6.99 6.99 0 002.67-5.5h2a8.99 8.99 0 01-3.661 7.246l2.527 4.378a2 2 0 01-.732 2.732l-3.527-6.108a9 9 0 01-3.607.752 9 9 0 01-3.607-.752l-3.527 6.108a2 2 0 01-.732-2.732l5.064-8.77A4.002 4.002 0 0111 4.123V1.997h2v2.126a4.002 4.002 0 011.803 6.728zm-1.73 1.001-1.528-2.646a4 4 0 01-2.142 0l-1.528 2.646a7 7 0 002.599.499 7 7 0 002.599-.499M12 8.997a1 1 0 100-2 1 1 0 000 2"/></svg>