<svg xmlns="http://www.w3.org/2000/svg" width="24" height="24" viewBox="0 0 24 24"><path fill="currentColor" d="M21.163 10.971c.35-.15.795.036.818.416a9.98 9.98 0 01-2.91 7.684c-3.905 3.905-10.237 3.905-14.142 0s-3.905-10.237 0-14.142a9.98 9.98 0 017.682-2.91c.38.022.568.467.417.817a3.5 3.5 0 002.743 4.852.64.64 0 01.54.541 3.5 3.5 0 004.852 2.742m-1.378 2.869c.07-.304-.173-.58-.483-.606a5.47 5.47 0 01-3.413-1.588 5.5 5.5 0 01-1.258-1.951.56.56 0 00-.326-.326 5.5 5.5 0 01-1.951-1.258 5.47 5.47 0 01-1.59-3.414c-.026-.31-.302-.554-.605-.483a8 8 0 109.626 9.626m-9.906.281a1.5 1.5 0 11-2.122 2.121 1.5 1.5 0 012.122-2.12m.353-6.01a1.5 1.5 0 11-2.121 2.121 1.5 1.5 0 012.121-2.121m5.657 5.657a1.5 1.5 0 11-2.121 2.121 1.5 1.5 0 012.121-2.121"/></svg>