<svg xmlns="http://www.w3.org/2000/svg" width="24" height="24" viewBox="0 0 24 24"><path fill="currentColor" d="M4.929 4.93a9.98 9.98 0 017.682-2.912c.38.023.567.468.416.817A3.502 3.502 0 0015.77 7.69a.64.64 0 01.541.54 3.5 3.5 0 004.852 2.742c.35-.15.795.036.818.417a9.98 9.98 0 01-2.91 7.683c-3.906 3.905-10.237 3.905-14.142 0-3.905-3.906-3.905-10.237 0-14.142m4.95 9.191a1.5 1.5 0 10-2.122 2.122 1.5 1.5 0 002.121-2.122m6.01-.353a1.5 1.5 0 10-2.121 2.121 1.5 1.5 0 002.12-2.121M10.232 8.11a1.5 1.5 0 10-2.121 2.121 1.5 1.5 0 002.12-2.121"/></svg>