<svg xmlns="http://www.w3.org/2000/svg" width="24" height="24" viewBox="0 0 24 24"><path fill="currentColor" d="M17 12c0-3.314-2.238-6-5-6s-5 2.686-5 6 2.239 6 5 6 5-2.686 5-6m-6.237 3.645 3.562-6.173c.422.69.675 1.57.675 2.528 0 2.21-1.343 4-3 4-.441 0-.86-.127-1.237-.355M9 12c0-2.21 1.343-4 3-4 .441 0 .86.127 1.237.355l-3.562 6.173C9.253 13.838 9 12.958 9 12m3-10a9.97 9.97 0 00-7.07 2.93A9.97 9.97 0 002 12a9.97 9.97 0 002.93 7.07A9.97 9.97 0 0012 22a9.97 9.97 0 007.07-2.93A9.97 9.97 0 0022 12a9.97 9.97 0 00-2.93-7.07A9.97 9.97 0 0012 2M6.344 6.344A7.97 7.97 0 0112 4c2.208 0 4.206.895 5.656 2.344A7.97 7.97 0 0120 12a7.97 7.97 0 01-2.344 5.656A7.97 7.97 0 0112 20a7.97 7.97 0 01-5.656-2.344A7.97 7.97 0 014 12c0-2.208.895-4.206 2.344-5.656"/></svg>