<svg xmlns="http://www.w3.org/2000/svg" width="24" height="24" viewBox="0 0 24 24"><path fill="currentColor" d="M17 13v1c0 2.77-.664 5.445-1.915 7.846l-.227.42-1.746-.974a14.9 14.9 0 001.881-6.836L15 14v-1zm-6-3h2v4l-.005.379a12.94 12.94 0 01-2.691 7.549l-.231.29-1.549-1.264a10.94 10.94 0 002.47-6.588L11 14zm1-4a5 5 0 015 5h-2a3 3 0 00-6 0v3c0 2.235-.82 4.344-2.27 5.977l-.212.23-1.448-1.38a6.97 6.97 0 001.924-4.524L7 14v-3a5 5 0 015-5m0-4a9 9 0 019 9v3c0 1.698-.201 3.37-.596 4.99l-.14.539-1.93-.526c.392-1.437.614-2.922.658-4.435L19 14v-3A7 7 0 007.808 5.394L6.383 3.968A8.96 8.96 0 0112 2M4.968 5.383l1.426 1.425a6.97 6.97 0 00-1.39 3.951L5 11l.004 2c0 1.12-.264 2.203-.761 3.177l-.157.29-1.736-.992c.379-.665.6-1.407.645-2.183L3.004 13v-2a8.94 8.94 0 011.964-5.617"/></svg>