<svg xmlns="http://www.w3.org/2000/svg" width="24" height="24" viewBox="0 0 24 24"><path fill="currentColor" d="m12 2.076.455.233a12.05 12.05 0 014.402 3.846 12 12 0 012.962-.957L21 4.98V13a9 9 0 01-18 0V4.98l1.18.218a12 12 0 012.963.957 12.05 12.05 0 014.402-3.846zM8.878 7.165a12.1 12.1 0 013.122 3.2 12.1 12.1 0 013.122-3.2A10.1 10.1 0 0012 4.337a10.1 10.1 0 00-3.122 2.828m2.021 5.269a10.05 10.05 0 00-3.908-4.102A10 10 0 005 7.457V13c0 3.29 2.27 6.05 5.329 6.8A12 12 0 0110 17c0-1.617.32-3.159.9-4.566m1.554 7.551A7 7 0 0019 13V7.457A10 10 0 0012 17c0 1.041.159 2.044.453 2.985"/></svg>