<svg xmlns="http://www.w3.org/2000/svg" width="24" height="24" viewBox="0 0 24 24"><path fill="currentColor" d="m19.467 8.694.246-.566a4.36 4.36 0 012.22-2.25l.759-.339a.53.53 0 000-.963l-.717-.319a4.37 4.37 0 01-2.251-2.326l-.253-.611a.506.506 0 00-.942 0l-.253.61a4.37 4.37 0 01-2.25 2.327l-.718.32a.53.53 0 000 .962l.76.338a4.36 4.36 0 012.219 2.251l.246.566c.18.414.753.414.934 0M4.754 15h6.492l2 5H15.4L9 4H7L.6 20h2.154zM8 6.885 10.446 13H5.554zM21 12v.535a4 4 0 100 6.93V20h2v-8zm0 4a2 2 0 11-4 0 2 2 0 014 0"/></svg>