<svg xmlns="http://www.w3.org/2000/svg" width="24" height="24" viewBox="0 0 24 24"><path fill="currentColor" d="M10 13a1 1 0 011 1v6a1 1 0 01-1 1H4a1 1 0 01-1-1v-6a1 1 0 011-1zm10 0a1 1 0 011 1v6a1 1 0 01-1 1h-6a1 1 0 01-1-1v-6a1 1 0 011-1zM5 19h4v-4H5zm10 0h4v-4h-4zm1.53-15.68a.506.506 0 01.94 0l.254.61a4.37 4.37 0 002.25 2.327l.719.32a.53.53 0 010 .962l-.76.338a4.36 4.36 0 00-2.219 2.25l-.247.566a.506.506 0 01-.934 0l-.246-.565a4.36 4.36 0 00-2.22-2.251l-.76-.338a.53.53 0 010-.963l.718-.32a4.37 4.37 0 002.251-2.325zM10 3a1 1 0 011 1v6a1 1 0 01-1 1H4a1 1 0 01-1-1V4a1 1 0 011-1zM5 9h4V5H5z"/></svg>