<svg xmlns="http://www.w3.org/2000/svg" width="24" height="24" viewBox="0 0 24 24"><path fill="currentColor" d="M12 2a9 9 0 019 9v8a1 1 0 01-.293.707l-2 2a1 1 0 01-1.262.125L15 20.202l-2.445 1.63a1 1 0 01-1.11 0L9 20.202l-2.445 1.63a1 1 0 01-1.262-.125l-2-2A1 1 0 013 19v-8a9 9 0 019-9m0 2a7 7 0 00-7 7v7.586l1.127 1.127 2.318-1.545.13-.073a1 1 0 01.98.073L12 19.798l2.445-1.63.13-.073a1 1 0 01.98.073l2.317 1.545L19 18.586V11a7 7 0 00-7-7M9.5 8a1.5 1.5 0 110 3 1.5 1.5 0 010-3m5 0a1.5 1.5 0 110 3 1.5 1.5 0 010-3"/></svg>