<svg xmlns="http://www.w3.org/2000/svg" width="24" height="24" viewBox="0 0 24 24"><path fill="currentColor" d="M14.505 2.003a3.5 3.5 0 013.163 5h3.337a1 1 0 011 1v4a1 1 0 01-1 1h-1v8a1 1 0 01-1 1h-14a1 1 0 01-1-1v-8h-1a1 1 0 01-1-1v-4a1 1 0 011-1h3.337a3.5 3.5 0 015.664-3.95 3.48 3.48 0 012.499-1.05m3.5 11h-12v7h12zm2-4h-16v2h16zm-10.5-5a1.5 1.5 0 00-.145 2.993l.145.007h1.5v-1.5A1.5 1.5 0 009.649 4.01zm5 0-.145.007a1.5 1.5 0 00-1.348 1.348l-.007.145v1.5h1.5l.144-.007a1.5 1.5 0 000-2.986z"/></svg>