<svg xmlns="http://www.w3.org/2000/svg" width="24" height="24" viewBox="0 0 24 24"><path fill="currentColor" d="M11.98 2.638a1 1 0 011.019.004l7.513 4.495a1 1 0 010 1.716l-7.513 4.495a1 1 0 01-1.026 0L7.82 10.863a2.5 2.5 0 00-3.686 1.621c-.088.392-.027.973.26 1.617q.105.24.24.466a4.6 4.6 0 001.625 1.601l.008.004 5.202 3.052a2.01 2.01 0 002.035 0L20 15.412V13.51l-6.999 4.208a1 1 0 01-1.026.003l-5.748-3.418a1 1 0 011.022-1.719l5.234 3.111 8.001-4.81A1 1 0 0122 11.74v4.245c0 .355-.188.684-.494.864l-6.99 4.1a4.01 4.01 0 01-4.06 0l-5.202-3.052a7 7 0 01-.374-.233l-.037-.025a6.46 6.46 0 01-2.03-2.229q-.05-.089-.096-.178l-.028-.058a6 6 0 01-.107-.229q-.036-.079-.07-.159a6.45 6.45 0 01.358-5.753c.635-1.108 1.592-1.986 2.661-2.613zM6.542 8.146q-.342.2-.647.437a4.48 4.48 0 012.725.44l.204.11.013.009 3.647 2.182 5.566-3.33-5.57-3.332z"/></svg>