<svg xmlns="http://www.w3.org/2000/svg" width="24" height="24" viewBox="0 0 24 24"><path fill="currentColor" d="M3.031 10.976c.04-1.48.127-2.667.325-3.655.331-1.658.954-2.659 2.199-3.489l-1.11-1.664c-1.754 1.17-2.632 2.669-3.05 4.76C1 8.902 1 11.485 1 14.88V15a5 5 0 109.935-.806 3 3 0 012.13 0A5 5 0 1023 15v-.12c0-3.396 0-5.979-.394-7.951-.419-2.092-1.296-3.591-3.051-4.761l-1.11 1.664c1.246.83 1.868 1.831 2.2 3.49.197.987.285 2.173.324 3.654A4.98 4.98 0 0018 10a5 5 0 00-4.225 2.325A5 5 0 0012 12a5 5 0 00-1.775.325A5 5 0 006 10a4.98 4.98 0 00-2.969.976"/></svg>