<svg xmlns="http://www.w3.org/2000/svg" width="24" height="24" viewBox="0 0 24 24"><path fill="currentColor" d="M22.036 16.379 19.914 18.5l2.122 2.122-1.414 1.414-2.122-2.122-2.121 2.122-1.414-1.414 2.12-2.122-2.12-2.121 1.414-1.414 2.121 2.12 2.122-2.12zM12.478 2.012C17.78 2.262 22 6.638 22 12v1H10.033a15.9 15.9 0 002.106 6.996q.123 0 .245-.005.255-.012.506-.04l.22 1.988a10 10 0 01-1.588.05C6.22 21.738 2 17.361 2 12s4.22-9.738 9.522-9.988a10 10 0 01.957 0M4.065 13a8.01 8.01 0 005.649 6.668A17.9 17.9 0 018.03 13zm5.649-8.669A8.01 8.01 0 004.064 11H8.03c.13-2.374.72-4.626 1.683-6.669M12 4.251A15.9 15.9 0 0010.033 11h3.934A15.9 15.9 0 0012 4.252m2.286.08A17.9 17.9 0 0115.97 11h3.966a8.01 8.01 0 00-5.65-6.669"/></svg>