<svg xmlns="http://www.w3.org/2000/svg" width="24" height="24" viewBox="0 0 24 24"><path fill="currentColor" d="m22.035 16.379-2.12 2.121 2.12 2.121-1.414 1.415-2.121-2.122-2.121 2.122-1.414-1.415 2.12-2.121-2.12-2.121 1.414-1.414 2.121 2.12 2.121-2.12zM7.527 13a17.9 17.9 0 002.925 8.88A10.006 10.006 0 012.05 13zm6.942 0q-.037.589-.117 1.166a5.98 5.98 0 00-1.755 5.403q-.28.524-.597 1.023A15.9 15.9 0 019.53 13zM10.452 2.12A17.9 17.9 0 007.527 11H2.05a10.006 10.006 0 018.403-8.88M12 3.407A15.9 15.9 0 0114.469 11H9.53A15.9 15.9 0 0112 3.408m1.548-1.289A10.005 10.005 0 0121.95 11h-5.477a17.9 17.9 0 00-2.925-8.88"/></svg>