<svg xmlns="http://www.w3.org/2000/svg" width="24" height="24" viewBox="0 0 24 24"><path fill="currentColor" d="M12 22C6.477 22 2 17.523 2 12S6.477 2 12 2s10 4.477 10 10-4.477 10-10 10m-2.29-2.333A17.9 17.9 0 018.027 13H4.062a8.01 8.01 0 005.648 6.667M10.03 13c.151 2.439.848 4.73 1.97 6.752A15.9 15.9 0 0013.97 13zm9.908 0h-3.965a17.9 17.9 0 01-1.683 6.667A8.01 8.01 0 0019.938 13M4.062 11h3.965A17.9 17.9 0 019.71 4.333 8.01 8.01 0 004.062 11m5.969 0h3.938A15.9 15.9 0 0012 4.248 15.9 15.9 0 0010.03 11m4.259-6.667A17.9 17.9 0 0115.973 11h3.965a8.01 8.01 0 00-5.648-6.667"/></svg>