<svg xmlns="http://www.w3.org/2000/svg" width="24" height="24" viewBox="0 0 24 24"><path fill="currentColor" d="M22 12c0 5.523-4.477 10-10 10a9.98 9.98 0 01-7.781-3.719L2 20.5v-6h6l-2.357 2.357A8 8 0 0020 12zM11.53 8.32a.507.507 0 01.94 0l.254.61a4.37 4.37 0 002.25 2.327l.718.32a.53.53 0 010 .962l-.76.338a4.36 4.36 0 00-2.218 2.25l-.247.566a.506.506 0 01-.934 0l-.246-.565a4.36 4.36 0 00-2.22-2.251l-.76-.338a.53.53 0 010-.963l.718-.32a4.37 4.37 0 002.251-2.325zM12 2a9.98 9.98 0 017.781 3.719L22 3.5v6h-6l2.357-2.357A8 8 0 004 12H2C2 6.477 6.477 2 12 2"/></svg>