<svg xmlns="http://www.w3.org/2000/svg" width="24" height="24" viewBox="0 0 24 24"><path fill="currentColor" d="M15.526 3.526a3.5 3.5 0 114.949 4.949l-.17.172a.5.5 0 000 .707l.17.172a3.5 3.5 0 010 4.949l-.17.172a.5.5 0 000 .707l.17.172a3.5 3.5 0 01-4.95 4.949l-.171-.17a.5.5 0 00-.707 0l-.172.17a3.5 3.5 0 01-4.95 0l-.171-.17a.5.5 0 00-.707 0l-.172.17a3.5 3.5 0 01-4.95-4.95l.172-.171a.5.5 0 000-.707l-.171-.172a3.5 3.5 0 010-4.95l.17-.171a.5.5 0 000-.707l-.17-.172a3.5 3.5 0 114.949-4.95l.172.172a.5.5 0 00.707 0l.172-.171a3.5 3.5 0 014.949 0l.172.17a.5.5 0 00.707 0zM19.06 4.94a1.5 1.5 0 00-2.121 0l-.172.172a2.5 2.5 0 01-3.535 0l-.172-.172a1.5 1.5 0 00-2.121 0l-.172.172a2.5 2.5 0 01-3.535 0L7.06 4.94a1.5 1.5 0 10-2.12 2.12l.172.173a2.5 2.5 0 010 3.535l-.172.172a1.5 1.5 0 000 2.12l.172.173a2.5 2.5 0 010 3.535l-.172.172a1.5 1.5 0 102.12 2.12l.173-.171a2.5 2.5 0 013.535 0l.172.172a1.5 1.5 0 002.12 0l.173-.172a2.5 2.5 0 013.535 0l.172.172a1.5 1.5 0 002.12-2.121l-.171-.172a2.5 2.5 0 010-3.535l.172-.172a1.5 1.5 0 000-2.121l-.172-.172a2.5 2.5 0 010-3.535l.172-.172a1.5 1.5 0 000-2.121M14.5 7.5a2 2 0 012 2v5a2 2 0 01-2 2h-5a2 2 0 01-2-2v-5a2 2 0 012-2zm-5 7h5v-5h-5z"/></svg>