<svg xmlns="http://www.w3.org/2000/svg" width="24" height="24" viewBox="0 0 24 24"><path fill="currentColor" d="m5.636 12.707 1.829 1.829 1.414-1.415-1.829-1.828 1.415-1.414 1.828 1.828 1.414-1.414L9.88 8.464l1.414-1.414 1.828 1.829 1.415-1.415-1.829-1.828 2.829-2.828a1 1 0 011.414 0l4.243 4.242a1 1 0 010 1.414L8.465 21.192a1 1 0 01-1.415 0L2.808 16.95a1 1 0 010-1.414zm8.485 5.656 4.243-4.242L21 16.756V21h-4.242zM5.636 9.878 2.808 7.05a1 1 0 010-1.415l2.828-2.828a1 1 0 011.414 0l2.83 2.828z"/></svg>