<svg xmlns="http://www.w3.org/2000/svg" width="24" height="24" viewBox="0 0 24 24"><path fill="currentColor" d="M12.001 22c-5.523 0-10-4.477-10-10s4.477-10 10-10 10 4.477 10 10-4.477 10-10 10m6.67-10a1.46 1.46 0 00-2.47-1 7.1 7.1 0 00-3.85-1.23l.65-3.12 2.14.45a1 1 0 10.13-.61L12.821 6a.31.31 0 00-.37.24l-.74 3.47a7.14 7.14 0 00-3.9 1.23 1.46 1.46 0 10-1.61 2.39 3 3 0 000 .44c0 2.24 2.61 4.06 5.83 4.06s5.83-1.82 5.83-4.06a3 3 0 000-.44 1.46 1.46 0 00.81-1.33m-10 1a1 1 0 112 0 1 1 0 01-2 0m5.81 2.75a3.84 3.84 0 01-2.47.77 3.84 3.84 0 01-2.47-.77.27.27 0 01.38-.38 3.27 3.27 0 002.08.63 3.28 3.28 0 002.09-.61.28.28 0 11.39.4zm-.18-1.71a1 1 0 111-1 1 1 0 01-1.01 1.04z"/></svg>