<svg xmlns="http://www.w3.org/2000/svg" width="24" height="24" viewBox="0 0 24 24"><path fill="currentColor" d="m12.999 2-.001 1.278 5 1.668 3.633-1.21.632 1.896-3.031 1.011 3.095 8.512A5.98 5.98 0 0117.998 17a5.98 5.98 0 01-4.328-1.845l3.094-8.512-3.766-1.256V19h4v2h-10v-2h4V5.387L7.232 6.643l3.095 8.512A5.98 5.98 0 016 17a5.98 5.98 0 01-4.33-1.845l3.095-8.512-3.03-1.01.632-1.898L6 4.945l4.999-1.667V2zm5 7.103-1.959 5.386a4 4 0 001.959.511c.7 0 1.37-.18 1.958-.51zm-12 0L4.04 14.489A4 4 0 005.999 15c.7 0 1.37-.18 1.958-.51z"/></svg>