<svg xmlns="http://www.w3.org/2000/svg" width="24" height="24" viewBox="0 0 24 24"><path fill="currentColor" d="M12.859 2H11.14c-2.014 0-3.094.278-4.072.801A5.45 5.45 0 004.801 5.07C4.278 6.047 4 7.127 4 9.141v5.718c0 2.014.278 3.094.801 4.071A5.45 5.45 0 007.07 21.2c.978.522 2.058.801 4.072.801h1.718c2.014 0 3.094-.279 4.071-.801a5.45 5.45 0 002.269-2.27c.522-.977.801-2.057.801-4.071V9.14c0-2.014-.279-3.094-.801-4.072A5.45 5.45 0 0016.931 2.8c-.978-.522-2.058-.8-4.071-.8M11 11V6h2v5zm-3.242 2.758 1.414-1.414 2.829 2.828 2.828-2.828 1.414 1.414-4.242 4.243z"/></svg>