<svg xmlns="http://www.w3.org/2000/svg" width="24" height="24" viewBox="0 0 24 24"><path fill="currentColor" d="m22.314 20.9-1.415 1.413-2.828-2.828 1.414-1.414zM11 2a9 9 0 01.783.036 6 6 0 00-.699 1.966L11 4c-3.867 0-7 3.133-7 7s3.133 7 7 7 7-3.133 7-7l-.003-.085a6 6 0 001.966-.7c.022.26.037.52.037.785 0 4.968-4.032 9-9 9s-9-4.032-9-9 4.032-9 9-9m5.53-.68a.506.506 0 01.94 0l.254.61a4.37 4.37 0 002.25 2.327l.718.32a.53.53 0 010 .962l-.76.338a4.36 4.36 0 00-2.218 2.25l-.247.566a.506.506 0 01-.934 0l-.246-.565a4.36 4.36 0 00-2.22-2.251l-.76-.338a.53.53 0 010-.963l.718-.32a4.37 4.37 0 002.251-2.325z"/></svg>