<svg xmlns="http://www.w3.org/2000/svg" width="24" height="24" viewBox="0 0 24 24"><path fill="currentColor" d="m22.314 20.9-1.415 1.414-2.828-2.829 1.414-1.414zM11 2a9 9 0 01.783.036 6 6 0 008.18 8.18c.022.258.037.52.037.784 0 4.968-4.032 9-9 9s-9-4.032-9-9 4.032-9 9-9m5.53-.682a.507.507 0 01.94 0l.254.612a4.37 4.37 0 002.25 2.326l.718.32a.53.53 0 010 .962l-.76.338a4.36 4.36 0 00-2.218 2.251l-.247.565a.506.506 0 01-.934 0l-.246-.565a4.36 4.36 0 00-2.22-2.251l-.76-.338a.53.53 0 010-.963l.718-.32a4.37 4.37 0 002.251-2.325z"/></svg>