<svg xmlns="http://www.w3.org/2000/svg" width="24" height="24" viewBox="0 0 24 24"><path fill="currentColor" d="M3.161 4.469a6.5 6.5 0 018.84-.328 6.5 6.5 0 019.178 9.154l-7.765 7.79a2 2 0 01-2.719.102l-.11-.101-7.764-7.791a6.5 6.5 0 01.34-8.826m1.414 1.414a4.5 4.5 0 00-.146 6.21l.146.154L12 19.672l5.303-5.305-3.535-3.534-1.06 1.06a3 3 0 01-4.244-4.242l2.102-2.103a4.5 4.5 0 00-5.837.189zm8.486 2.828a1 1 0 011.414 0l4.242 4.242.708-.706a4.5 4.5 0 00-6.211-6.51l-.153.146-3.182 3.182a1 1 0 00-.078 1.327l.078.087a1 1 0 001.327.078l.087-.078z"/></svg>