<svg xmlns="http://www.w3.org/2000/svg" width="24" height="24" viewBox="0 0 24 24"><path fill="currentColor" d="M2 12c0-.865.11-1.704.316-2.504A3 3 0 004.99 4.867a10 10 0 014.335-2.506 3 3 0 005.348 0 10 10 0 014.335 2.506 3 3 0 002.675 4.63c.206.8.316 1.638.316 2.503 0 .864-.11 1.703-.316 2.503a3 3 0 00-2.675 4.63 10 10 0 01-4.335 2.505 3 3 0 00-5.348 0 10 10 0 01-4.335-2.505 3 3 0 00-2.675-4.63C2.11 13.703 2 12.864 2 12m4.804 3c.63 1.091.81 2.346.564 3.524q.613.436 1.297.75A5 5 0 0112 18c1.26 0 2.438.471 3.335 1.274q.684-.314 1.297-.75A5 5 0 0117.196 15a5 5 0 012.77-2.25 8 8 0 000-1.5A5 5 0 0117.196 9a5 5 0 01-.564-3.524 8 8 0 00-1.297-.75A5 5 0 0112 6a5 5 0 01-3.335-1.274 8 8 0 00-1.297.75A5 5 0 016.804 9a5 5 0 01-2.77 2.25 8 8 0 000 1.5A5 5 0 016.805 15M12 15a3 3 0 110-6 3 3 0 010 6m0-2a1 1 0 100-2 1 1 0 000 2"/></svg>