<svg xmlns="http://www.w3.org/2000/svg" width="24" height="24" viewBox="0 0 24 24"><path fill="currentColor" d="M5.334 4.545a10 10 0 013.542-2.048A4 4 0 0012 4a4 4 0 003.124-1.502 10 10 0 013.542 2.048A4 4 0 0018.928 8a4 4 0 002.863 1.955 10 10 0 010 4.09c-1.16.178-2.23.86-2.863 1.955a4 4 0 00-.262 3.455 10 10 0 01-3.542 2.047A4 4 0 0012 20a4 4 0 00-3.124 1.503 10 10 0 01-3.542-2.048A4 4 0 005.072 16a4 4 0 00-2.863-1.954 10 10 0 010-4.091A4 4 0 005.072 8a4 4 0 00.262-3.454M13.5 14.597a3 3 0 10-3-5.196 3 3 0 003 5.196"/></svg>