<svg xmlns="http://www.w3.org/2000/svg" width="24" height="24" viewBox="0 0 24 24"><path fill="currentColor" d="M9.954 2.21a10 10 0 014.09-.002A4 4 0 0016 5.07a4 4 0 003.457.261A10 10 0 0121.5 8.877a4 4 0 00-1.5 3.122c0 1.264.586 2.391 1.501 3.124a10 10 0 01-2.045 3.543 4 4 0 00-3.456.261 4 4 0 00-1.955 2.86 10 10 0 01-4.09.004A4 4 0 008 18.927a4 4 0 00-3.457-.26A10 10 0 012.5 15.121 4 4 0 004 11.999c0-1.264-.587-2.39-1.502-3.124a10 10 0 012.045-3.542A4 4 0 008 5.07a4 4 0 001.954-2.86M12 15a3 3 0 100-6 3 3 0 000 6"/></svg>