<svg xmlns="http://www.w3.org/2000/svg" width="24" height="24" viewBox="0 0 24 24"><path fill="currentColor" d="M3.34 17a10 10 0 01-.979-2.326 3 3 0 00.003-5.347 10 10 0 012.5-4.337 3 3 0 004.632-2.674 10 10 0 015.007.003 3 3 0 004.632 2.671 10.06 10.06 0 012.503 4.336 3 3 0 00-.002 5.347 10 10 0 01-2.501 4.337 3 3 0 00-4.632 2.674 10 10 0 01-5.007-.002 3 3 0 00-4.631-2.672A10 10 0 013.339 17m5.66.196a5 5 0 012.25 2.77q.75.07 1.499.002a5 5 0 012.25-2.772 5 5 0 013.526-.564q.435-.614.748-1.298A5 5 0 0118 12c0-1.26.47-2.437 1.273-3.334a8 8 0 00-.75-1.298A5 5 0 0115 6.804a5 5 0 01-2.25-2.77q-.75-.071-1.5-.001A5 5 0 019 6.804a5 5 0 01-3.526.564q-.436.614-.747 1.298A5 5 0 016 12c0 1.26-.471 2.437-1.273 3.334a8 8 0 00.75 1.298A5 5 0 019 17.196M12 15a3 3 0 110-6 3 3 0 010 6m0-2a1 1 0 100-2 1 1 0 000 2"/></svg>