<svg xmlns="http://www.w3.org/2000/svg" width="24" height="24" viewBox="0 0 24 24"><path fill="currentColor" d="M4 10.4V4a1 1 0 011-1h5V1h4v2h5a1 1 0 011 1v6.4l1.086.326a1 1 0 01.683 1.2l-1.517 6.068A4.99 4.99 0 0116 16a5 5 0 01-4 2 5 5 0 01-4-2 4.99 4.99 0 01-4.252 1.994l-1.516-6.068a1 1 0 01.682-1.2zm2-.6L12 8l2.754.826 1.809.543L18 9.8V5H6zM4 20a5.98 5.98 0 004-1.528A5.98 5.98 0 0012 20a5.98 5.98 0 004-1.528A5.98 5.98 0 0020 20h2v2h-2a7.96 7.96 0 01-4-1.07A7.96 7.96 0 0112 22a7.96 7.96 0 01-4-1.07A7.96 7.96 0 014 22H2v-2z"/></svg>