<svg xmlns="http://www.w3.org/2000/svg" width="24" height="24" viewBox="0 0 24 24"><path fill="currentColor" d="M9 4h5.446a1 1 0 01.848.47L18.75 10h4.408a.5.5 0 01.439.74l-3.937 7.217A4.99 4.99 0 0115 16a5 5 0 01-4 2 5 5 0 01-4-2 4.99 4.99 0 01-4.55 1.97l-1.236-6.791A1 1 0 012.198 10H3V5a1 1 0 011-1h1V1h4zm-4 6h11.392l-2.5-4H5zM3 20a5.98 5.98 0 004-1.528A5.98 5.98 0 0011 20a5.98 5.98 0 004-1.528A5.98 5.98 0 0019 20h2v2h-2a7.96 7.96 0 01-4-1.07A7.96 7.96 0 0111 22a7.96 7.96 0 01-4-1.07A7.96 7.96 0 013 22H1v-2z"/></svg>