<svg xmlns="http://www.w3.org/2000/svg" width="24" height="24" viewBox="0 0 24 24"><path fill="currentColor" d="M4 10a1 1 0 011 1v7a1 1 0 11-2 0v-7a1 1 0 011-1m3 1a1 1 0 011 1v6a1 1 0 11-2 0v-6a1 1 0 011-1m3-4a1 1 0 011 1v10a1 1 0 11-2 0V8a1 1 0 011-1m5-1a6 6 0 015.996 5.775l.003.26a3.5 3.5 0 01-.307 6.96L20.5 19h-3.501a1 1 0 01-.117-1.993L17 17h3.447l.138-.002a1.5 1.5 0 00.267-2.957l-.135-.026-1.77-.252.053-1.787-.004-.176A4 4 0 0015.2 8.005L15 8q-.402 0-.788.077L14 8.126v9.875a1 1 0 01-.883.992L13 19a1 1 0 01-1-1V6.804A6 6 0 0115 6M1 12a1 1 0 011 1v4a1 1 0 11-2 0v-4a1 1 0 011-1"/></svg>