<svg xmlns="http://www.w3.org/2000/svg" width="24" height="24" viewBox="0 0 24 24"><path fill="currentColor" d="M2.88 18.05a35.9 35.9 0 018.53-16.322.8.8 0 011.178 0q.25.27.412.456a35.9 35.9 0 018.119 15.864 44 44 0 01-6.584.875L12.447 23.1a.5.5 0 01-.894 0l-2.089-4.177a44 44 0 01-6.584-.875m6.697-1.123 1.158.066L12 19.523l1.265-2.53 1.157-.066a42 42 0 004.227-.455 33.9 33.9 0 00-6.65-12.387 33.9 33.9 0 00-6.648 12.387 42 42 0 004.226.455M12 14.995a3 3 0 110-6 3 3 0 010 6m0-2a1 1 0 100-2 1 1 0 000 2"/></svg>