<svg xmlns="http://www.w3.org/2000/svg" width="24" height="24" viewBox="0 0 24 24"><path fill="currentColor" d="M4 5v14h16V5zM3 3h18a1 1 0 011 1v16a1 1 0 01-1 1H3a1 1 0 01-1-1V4a1 1 0 011-1m4.05 4.121 1.414 1.415A4.98 4.98 0 007 12.07c0 1.38.56 2.63 1.464 3.536L7.05 17.02A6.98 6.98 0 015 12.07c0-1.933.784-3.683 2.05-4.95m9.9 0A6.98 6.98 0 0119 12.07a6.98 6.98 0 01-2.05 4.95l-1.414-1.414A4.98 4.98 0 0017 12.07c0-1.38-.56-2.63-1.464-3.535zM12 13.071a1 1 0 100-2 1 1 0 000 2m0 2a3 3 0 110-6 3 3 0 010 6"/></svg>