<svg xmlns="http://www.w3.org/2000/svg" width="24" height="24" viewBox="0 0 24 24"><path fill="currentColor" d="M10.99 1.974c2.92-1.86 6.957-.992 9.001 1.934a6.27 6.27 0 011.072 4.74 5.9 5.9 0 01-.88 2.198c.64 1.221.855 2.62.61 3.977a5.88 5.88 0 01-2.657 3.94l-5.127 3.268c-2.92 1.86-6.957.993-9.002-1.933a6.27 6.27 0 01-1.07-4.741 5.9 5.9 0 01.88-2.198 6.2 6.2 0 01-.611-3.977 5.88 5.88 0 012.658-3.94zM8.049 20.25c.782.29 1.633.332 2.44.123.369-.099.72-.253 1.042-.458l5.128-3.267a3.54 3.54 0 001.598-2.37 3.77 3.77 0 00-.645-2.85 4.07 4.07 0 00-4.37-1.62c-.369.099-.72.253-1.042.458l-1.957 1.246a1.1 1.1 0 01-.314.138 1.227 1.227 0 01-1.5-.899 1.1 1.1 0 01-.01-.45 1.07 1.07 0 01.48-.713l5.129-3.268a1.1 1.1 0 01.314-.138 1.23 1.23 0 011.317.489c.157.222.23.492.207.762l-.018.19.191.058a6.6 6.6 0 012.005 1.003l.263.192.096-.295q.078-.235.123-.478a3.77 3.77 0 00-.644-2.85 4.07 4.07 0 00-4.371-1.621 3.7 3.7 0 00-1.042.458L7.34 7.357a3.54 3.54 0 00-1.6 2.37 3.77 3.77 0 00.645 2.85 4.07 4.07 0 004.371 1.62c.369-.099.72-.253 1.042-.457l1.956-1.248q.148-.093.315-.137a1.23 1.23 0 011.5.899c.034.147.037.3.011.449a1.07 1.07 0 01-.482.713l-5.127 3.269a1.1 1.1 0 01-.314.137 1.23 1.23 0 01-1.317-.488 1.15 1.15 0 01-.207-.762l.017-.19-.19-.058a6.6 6.6 0 01-2.005-1.003l-.263-.192-.096.295a4 4 0 00-.123.478 3.77 3.77 0 00.644 2.85 4.07 4.07 0 001.93 1.498"/></svg>