<svg xmlns="http://www.w3.org/2000/svg" width="24" height="24" viewBox="0 0 24 24"><path fill="currentColor" d="M16 1a1 1 0 011 1v.999L22 3v6l-2.02-.001 2.767 7.596a4 4 0 11-7.62 2.406h-4.253a4.002 4.002 0 01-7.8-.229A2 2 0 012 17V4a1 1 0 011-1h7a1 1 0 011 1v8a1 1 0 00.883.993L12 13h2a1 1 0 00.993-.883L15 12V3h-3V1zM7 16a2 2 0 100 4 2 2 0 000-4m12-.001a2 2 0 100 4 2 2 0 000-4m-1.148-7H17V12a3 3 0 01-3 3h-2a3 3 0 01-2.829-2H4v2.354A4.002 4.002 0 0110.874 17h4.252a4 4 0 014.57-2.94zM9 8H4v3h5zm11-3h-3v2h3zM9 5H4v1h5z"/></svg>