<svg xmlns="http://www.w3.org/2000/svg" width="24" height="24" viewBox="0 0 24 24"><path fill="currentColor" d="M12.498 3a6.5 6.5 0 00-.479 2H7a2 2 0 00-1.995 1.85L5 7v11h14v-6.019a6.5 6.5 0 002-.48V18a2 2 0 01-2 2h-1.8l1.8 1.5v.5H5v-.5L6.8 20H5a2 2 0 01-2-2V7a4 4 0 014-4zM12 13a2 2 0 110 4 2 2 0 010-4m.174-6a6.5 6.5 0 002.862 4.001L6 11V7zM18.5 1a4.5 4.5 0 110 9 4.5 4.5 0 010-9m0 5.167c-.491 0-.94.177-1.289.47l-.125.115L18.5 8.167l1.413-1.415a2 2 0 00-1.413-.585m0-2.667a4.65 4.65 0 00-3.128 1.203l-.173.165.944.942a3.32 3.32 0 012.357-.977 3.32 3.32 0 012.201.83l.156.147.943-.943A4.65 4.65 0 0018.5 3.5"/></svg>