<svg xmlns="http://www.w3.org/2000/svg" width="24" height="24" viewBox="0 0 24 24"><path fill="currentColor" d="M22.213 5.656a8.4 8.4 0 01-2.402.658A4.2 4.2 0 0021.649 4c-.82.488-1.719.83-2.655 1.015a4.182 4.182 0 00-7.126 3.814 11.87 11.87 0 01-8.621-4.37 4.17 4.17 0 00-.566 2.103c0 1.45.739 2.731 1.86 3.481a4.2 4.2 0 01-1.894-.523v.051a4.185 4.185 0 003.355 4.102 4.2 4.2 0 01-1.89.072A4.185 4.185 0 008.02 16.65a8.4 8.4 0 01-6.192 1.732 11.83 11.83 0 006.41 1.88c7.694 0 11.9-6.373 11.9-11.9q0-.271-.012-.541a8.5 8.5 0 002.086-2.164"/></svg>