<svg xmlns="http://www.w3.org/2000/svg" width="24" height="24" viewBox="0 0 24 24"><path fill="currentColor" d="m8.668 19.273 1.006-1.742a6 6 0 008.282-4.781h2.012A8 8 0 0118.929 16a8 8 0 01-1.452 1.835 2.5 2.5 0 00-1.976.227 2.5 2.5 0 00-1.184 1.595 7.98 7.98 0 01-5.65-.384m-1.3-.75a7.98 7.98 0 01-3.157-4.7C4.696 13.367 5 12.719 5 12c0-.72-.304-1.369-.791-1.825A8 8 0 015.073 8a8 8 0 012.295-2.524l1.006 1.742a6 6 0 000 9.563zm1.3-13.796a8 8 0 015.648-.387 2.497 2.497 0 003.161 1.825 8 8 0 012.49 5.085h-2.013A5.99 5.99 0 0015 6.804a5.99 5.99 0 00-5.327-.335zM16 5.072a1.5 1.5 0 111.5-2.598A1.5 1.5 0 0116 5.072M4.001 12a1.5 1.5 0 11-3 0 1.5 1.5 0 013 0m12 6.928a1.5 1.5 0 111.5 2.598 1.5 1.5 0 01-1.5-2.598"/></svg>