<svg xmlns="http://www.w3.org/2000/svg" width="24" height="24" viewBox="0 0 24 24"><path fill="currentColor" d="M22.001 12c0 5.522-4.477 10-10 10s-10-4.478-10-10 4.477-10 10-10 10 4.477 10 10m-16.8-1.336a1.335 1.335 0 100 2.67 1.335 1.335 0 000-2.67m9.533 6.069a1.334 1.334 0 101.334 2.31 1.334 1.334 0 00-1.334-2.31M8.1 12c0-1.32.656-2.485 1.659-3.19l-.977-1.636a5.8 5.8 0 00-2.398 3.371 1.875 1.875 0 010 2.91 5.8 5.8 0 002.398 3.371l.977-1.636A3.89 3.89 0 018.1 12M12 8.1a3.9 3.9 0 013.884 3.554l1.903-.028a5.78 5.78 0 00-1.724-3.762A1.872 1.872 0 0113.55 6.41a5.83 5.83 0 00-4.12.39l.927 1.663A3.9 3.9 0 0112 8.1m0 7.8a3.9 3.9 0 01-1.642-.363l-.928 1.662a5.77 5.77 0 004.12.39 1.872 1.872 0 012.514-1.454 5.78 5.78 0 001.723-3.762l-1.903-.027A3.9 3.9 0 0112 15.9m2.732-8.633a1.335 1.335 0 101.335-2.312 1.335 1.335 0 00-1.335 2.312"/></svg>