<svg xmlns="http://www.w3.org/2000/svg" width="24" height="24" viewBox="0 0 24 24"><path fill="currentColor" d="M12 2c5.523 0 10 4.477 10 10s-4.477 10-10 10S2 17.523 2 12 6.477 2 12 2m0 2a8 8 0 100 16 8 8 0 000-16m4.152 4.295a3.314 3.314 0 013.341 3.39 3.307 3.307 0 01-3.337 3.409h-.138a3.4 3.4 0 01-1.689-.522 4.5 4.5 0 01-.555-.408l-.526 3.23h-1.517l.8-4.559c-.683-1-1.188-2.112-1.494-3.284v2.178c0 1.978-1.26 3.36-3.058 3.36a2.97 2.97 0 01-2.26-.957 3.5 3.5 0 01-.862-2.44V8.47h1.494v3.222c0 1.175.591 2.04 1.631 2.04s1.57-.869 1.57-2.04V8.47h2.6c.173.791.437 1.561.787 2.293a3.17 3.17 0 012.944-2.48zm.008 1.35c-1.052 0-1.848.677-2.12 2.855a2.67 2.67 0 001.953 1.234l.167-.01c1.036 0 1.852-.816 1.853-2.04 0-1.223-.8-2.04-1.853-2.04"/></svg>