<svg xmlns="http://www.w3.org/2000/svg" width="24" height="24" viewBox="0 0 24 24"><path fill="currentColor" d="M5.234 7.73A8 8 0 0112 4a8 8 0 016.767 3.73l1.69-1.07A10 10 0 0012 2a10 10 0 00-8.456 4.66zM12 20a8 8 0 01-6.766-3.73l-1.69 1.07A10 10 0 0012 22a10 10 0 008.457-4.66l-1.69-1.07A8 8 0 0112 20m0-12a1 1 0 110 2 1 1 0 010-2m0 4a3 3 0 100-6 3 3 0 000 6m0 3a2 2 0 00-2 2H8a4 4 0 018 0h-2a2 2 0 00-2-2m-9-4a1 1 0 100 2 1 1 0 000-2m-3 1a3 3 0 116 0 3 3 0 01-6 0m20 0a1 1 0 112 0 1 1 0 01-2 0m1-3a3 3 0 100 6 3 3 0 000-6"/></svg>