<svg xmlns="http://www.w3.org/2000/svg" width="24" height="24" viewBox="0 0 24 24"><path fill="currentColor" d="m13.716 1.947 3.735 1.434-.717 1.867-.934-.359-.746 1.945a6 6 0 011.945 1.846l1.902-.847-.406-.914 1.827-.813 1.627 3.654-1.827.813-.407-.913-1.902.847a6 6 0 01.07 2.68l1.944.746.358-.933 1.867.716-1.433 3.735-1.867-.717.357-.933-1.944-.747A6 6 0 0115.32 17l.848 1.903.914-.407.813 1.827-3.654 1.627-.813-1.827.913-.407-.847-1.902a6 6 0 01-2.68.07l-.747 1.944.934.358-.717 1.867L6.55 20.62l.717-1.867.932.358.748-1.944A6 6 0 017 15.319l-1.903.848.407.914-1.827.813L2.05 14.24l1.827-.813.406.914 1.903-.848a6 6 0 01-.07-2.68l-1.945-.746-.358.933-1.867-.716L3.38 6.549l1.867.717-.36.933 1.946.747A6 6 0 018.68 7l-.848-1.903-.913.407-.814-1.827L9.76 2.051l.813 1.827-.914.407.848 1.902a6 6 0 012.68-.07l.745-1.945L13 3.815zM12 8a4 4 0 100 8 4 4 0 000-8m-.5 4.866a1 1 0 11-1 1.732 1 1 0 011-1.732M14 11a1 1 0 110 2 1 1 0 010-2m-2.134-1.232a1 1 0 11-1.732 1 1 1 0 011.732-1"/></svg>