<svg xmlns="http://www.w3.org/2000/svg" width="24" height="24" viewBox="0 0 24 24"><path fill="currentColor" d="M10.001 14.676v-.062c0-2.509 2.017-4.618 4.753-5.233C14.39 7.079 11.96 5.2 8.9 5.2 5.58 5.2 3 7.413 3 9.98c0 .969.36 1.9 1.04 2.698q.048.058.152.165a3.57 3.57 0 011.002 2.238 3.6 3.6 0 012.363-.442q.25.039.405.06A7.3 7.3 0 0010 14.676m.457 1.951a9.2 9.2 0 01-2.753.055 19 19 0 01-.454-.067 1.6 1.6 0 00-1.08.212l-1.904 1.147a.8.8 0 01-.49.118.79.79 0 01-.729-.851l.15-1.781a1.57 1.57 0 00-.439-1.223 6 6 0 01-.241-.262C1.563 12.855 1 11.473 1 9.979 1 6.235 4.537 3.2 8.9 3.2c4.06 0 7.403 2.627 7.85 6.008 3.371.153 6.05 2.515 6.05 5.406 0 1.193-.456 2.296-1.229 3.19q-.076.09-.195.21a1.24 1.24 0 00-.356.976l.121 1.423a.635.635 0 01-.59.68.66.66 0 01-.396-.094l-1.544-.917a1.32 1.32 0 00-.874-.169q-.22.034-.368.053-.475.061-.969.062c-2.694 0-4.998-1.408-5.943-3.401m6.977 1.31a3.3 3.3 0 011.675.174 3.25 3.25 0 01.842-1.502q.076-.077.106-.112c.489-.565.743-1.213.743-1.883 0-1.805-1.903-3.414-4.4-3.414S12 12.81 12 14.614s1.903 3.414 4.4 3.414a6 6 0 00.714-.046q.121-.015.32-.046"/></svg>