<svg xmlns="http://www.w3.org/2000/svg" width="512" height="512" viewBox="0 0 512 512"><path d="M104 160a56 56 0 1156-56 56.06 56.06 0 01-56 56m152 0a56 56 0 1156-56 56.06 56.06 0 01-56 56m152 0a56 56 0 1156-56 56.06 56.06 0 01-56 56M104 312a56 56 0 1156-56 56.06 56.06 0 01-56 56m152 0a56 56 0 1156-56 56.06 56.06 0 01-56 56m152 0a56 56 0 1156-56 56.06 56.06 0 01-56 56M104 464a56 56 0 1156-56 56.06 56.06 0 01-56 56m152 0a56 56 0 1156-56 56.06 56.06 0 01-56 56m152 0a56 56 0 1156-56 56.06 56.06 0 01-56 56"/></svg>