<svg xmlns="http://www.w3.org/2000/svg" width="512" height="512" viewBox="0 0 512 512"><path d="m444 295.67-.47-26.07a205.4 205.4 0 01-39.27-4.73l-5 17.35a14 14 0 11-26.88-7.81l5-17.38a206.5 206.5 0 01-36.05-17.35l-10.44 14.77a14 14 0 01-22.87-16.16l10.41-14.73a204.8 204.8 0 01-30-30L273.71 204a14 14 0 01-16.16-22.87l14.74-10.42a205.3 205.3 0 01-17.38-36.06l-17.32 5a14 14 0 11-7.81-26.89l17.3-5a206 206 0 01-4.43-32.59q-.17-3-.24-6l-18.22-.33a14 14 0 01-13.74-14A208 208 0 0055 202.42a16 16 0 0115 15.66l.44 24.43c1.58.05 3.16.11 4.73.2a206 206 0 0132.59 4.43l5-17.3a14 14 0 0126.89 7.81l-5 17.32a205 205 0 0136 17.38L181 257.61a14 14 0 0122.87 16.16l-10.39 14.73a206 206 0 0115.79 14.23 204 204 0 0114.23 15.79l14.73-10.41A14 14 0 01254.39 331l-14.76 10.43A207 207 0 01257 377.47l17.38-5.05a14 14 0 017.81 26.89l-17.35 5a206 206 0 014.7 38.28l18.27.33a16 16 0 0115.71 16.28 12 12 0 01-.08 1.19 208 208 0 00153.39-151.03A14 14 0 01444 295.67"/><path d="M301.49 56.2A14 14 0 01287.5 70h-.25l-16.81-.3c.05 1.31.1 2.62.17 3.93a179 179 0 003.44 26.31l16.29-4.74a14 14 0 017.81 26.8l-16.27 4.73a178 178 0 0013.33 27.69l13.84-9.78a14 14 0 1116.16 22.87l-13.86 9.79q5.25 6.33 11.12 12.19c3.9 3.91 8 7.6 12.2 11.1l9.78-13.84A14 14 0 11367.32 203l-9.76 13.8a179 179 0 0027.68 13.33l4.76-16.28a14 14 0 0126.89 7.81l-4.73 16.26a177.7 177.7 0 0030.95 3.65l-.16-9a14 14 0 0113.75-14.24h.25a14.7 14.7 0 012.59.25 208 208 0 00-158-163.51c-.06.4-.04.76-.05 1.13m-93.05 401.35a16 16 0 0116.28-15.71l16.76.29a178.5 178.5 0 00-3.62-29.95l-16.26 4.72a14 14 0 11-7.81-26.9l16.21-4.7a178 178 0 00-13.33-27.68l-13.8 9.76a14 14 0 11-16.16-22.87l13.84-9.78c-3.5-4.22-7.19-8.3-11.1-12.2s-8-7.62-12.19-11.12l-9.79 13.86a14 14 0 11-22.87-16.16l9.78-13.84a177 177 0 00-27.69-13.33L122 298.21a14 14 0 11-26.9-7.81l4.73-16.29a177 177 0 00-26.31-3.44c-.89-.05-1.79-.08-2.68-.12l.16 10.59a16 16 0 01-15.71 16.28H55a16 16 0 01-3.94-.51 208 208 0 00157.65 163.87 15.7 15.7 0 01-.27-3.23"/></svg>