<svg xmlns="http://www.w3.org/2000/svg" width="512" height="512" viewBox="0 0 512 512"><path d="m63.998 86.005 21.998-21.998L447.999 426.01l-21.998 21.998zM259.34 192.09l60.57 60.57a64.07 64.07 0 00-60.57-60.57m-6.68 127.82-60.57-60.57a64.07 64.07 0 0060.57 60.57"/><path d="M256 352a96 96 0 01-92.6-121.34l-69.07-69.08C66.12 187.42 39.24 221.14 16 256c26.42 44 62.56 89.24 100.2 115.18C159.38 400.92 206.33 416 255.76 416A233.5 233.5 0 00335 402.2l-53.61-53.6A95.8 95.8 0 01256 352m0-192a96 96 0 0192.6 121.34L419.26 352c29.15-26.25 56.07-61.56 76.74-96-26.38-43.43-62.9-88.56-101.18-114.82C351.1 111.2 304.31 96 255.76 96a222.9 222.9 0 00-78.21 14.29l53.11 53.11A95.8 95.8 0 01256 160"/></svg>