<svg xmlns="http://www.w3.org/2000/svg" width="512" height="512" viewBox="0 0 512 512"><path d="M256 400a48 48 0 1048 48 48 48 0 00-48-48m0-128a48 48 0 1048 48 48 48 0 00-48-48m0-128a48 48 0 1048 48 48 48 0 00-48-48m0-128a48 48 0 1048 48 48 48 0 00-48-48m128 256a48 48 0 1048 48 48 48 0 00-48-48m0-128a48 48 0 1048 48 48 48 0 00-48-48m0-128a48 48 0 1048 48 48 48 0 00-48-48M128 272a48 48 0 1048 48 48 48 0 00-48-48m0-128a48 48 0 1048 48 48 48 0 00-48-48m0-128a48 48 0 1048 48 48 48 0 00-48-48"/></svg>