<svg xmlns="http://www.w3.org/2000/svg" width="512" height="512" viewBox="0 0 512 512"><path d="M48.48 378.73a300.5 300.5 0 00152.89 95.92 262.57 262.57 0 00159.3-17.25 225.5 225.5 0 0066.79-47 6.36 6.36 0 00-2-8.53 11.76 11.76 0 00-8-.05 402 402 0 01-116.55 39.34 358.1 358.1 0 01-127.29-8.83 446.7 446.7 0 01-119.1-60.49 5 5 0 00-6.06 6.9Z"/><path d="M387.15 388.44a168.1 168.1 0 0148.94-2.23l.67.13a10 10 0 017.37 12.05A204.7 204.7 0 01429 444.47a2.55 2.55 0 001.66 3.18 2.51 2.51 0 002.23-.37A83.31 83.31 0 00464 382.86a12.44 12.44 0 00-10.22-13.22A95.75 95.75 0 00384.91 384a2.55 2.55 0 00-.57 3.55 2.52 2.52 0 002.81.89m-82.91-63.52a164 164 0 01-28.92 25.3A135.16 135.16 0 01208.63 369a99.5 99.5 0 01-57.49-19.85 97.25 97.25 0 01-27.36-100.28 112.35 112.35 0 0165.3-69.06 367.7 367.7 0 01104.7-15.55V127A37.82 37.82 0 00261 94.72a59.9 59.9 0 00-31.17 4.08 48.89 48.89 0 00-27.13 34.67 12 12 0 01-12.58 6.72l-50.9-4.5a11.38 11.38 0 01-8.38-10.16 103.66 103.66 0 0136.61-63.45A143.86 143.86 0 01257.85 32a146.24 146.24 0 0184.27 27.67 86.82 86.82 0 0130.7 70.22V258.8a84.5 84.5 0 008 31.28l15.87 23.23a13 13 0 010 11.23l-46.99 39.71a12.5 12.5 0 01-12.68-.44 245 245 0 01-32.78-38.89m-10.6-116.83a257.7 257.7 0 00-44 2.89A63 63 0 00208 242.54a63 63 0 003.07 54 40.6 40.6 0 0047.11 12.19 78.61 78.61 0 0035.46-55.58z"/></svg>