<svg xmlns="http://www.w3.org/2000/svg" width="512" height="512" viewBox="0 0 512 512"><defs><path id="svgID0" fill="currentColor" d="M337.46 240 312 214.54l-56 56-56-56L174.54 240l56 56-56 56L200 377.46l56-56 56 56L337.46 352l-56-56z"/></defs><use href="#svgID0"/><use href="#svgID0"/><path d="m64 160 29.74 282.51A24 24 0 00117.61 464h276.78a24 24 0 0023.87-21.49L448 160Zm248 217.46-56-56-56 56L174.54 352l56-56-56-56L200 214.54l56 56 56-56L337.46 240l-56 56 56 56Z"/><rect width="448" height="80" x="32" y="48" rx="12" ry="12"/></svg>