<svg xmlns="http://www.w3.org/2000/svg" width="24" height="24" viewBox="0 0 24 24"><path fill="currentColor" d="M6 3a1 1 0 01.993.883L7 4v3.171a3.001 3.001 0 010 5.658V20a1 1 0 01-1.993.117L5 20v-7.17a3 3 0 01-1.995-2.654L3 10l.005-.176A3 3 0 015 7.17V4a1 1 0 011-1m6 0a1 1 0 01.993.883L13 4v9.171a3.001 3.001 0 010 5.658V20a1 1 0 01-1.993.117L11 20v-1.17a3 3 0 01-1.995-2.654L9 16l.005-.176A3 3 0 0111 13.17V4a1 1 0 011-1m6 0a1 1 0 01.993.883L19 4v.171a3.001 3.001 0 010 5.658V20a1 1 0 01-1.993.117L17 20V9.83a3 3 0 01-1.995-2.654L15 7l.005-.176A3 3 0 0117 4.17V4a1 1 0 011-1"/></svg>