<svg xmlns="http://www.w3.org/2000/svg" width="24" height="24" viewBox="0 0 24 24"><path fill="currentColor" d="M18.333 2c1.96 0 3.56 1.537 3.662 3.472l.005.195v12.666c0 1.96-1.537 3.56-3.472 3.662l-.195.005H5.667a3.667 3.667 0 01-3.662-3.472L2 18.333V5.667c0-1.96 1.537-3.56 3.472-3.662L5.667 2zM9 5a1 1 0 00-1 1v6l.007.117A1 1 0 0010 12V6l-.007-.117A1 1 0 009 5m3 0a1 1 0 00-1 1v4l.007.117A1 1 0 0013 10V6l-.007-.117A1 1 0 0012 5M6 5a1 1 0 00-1 1v2l.007.117A1 1 0 007 8V6l-.007-.117A1 1 0 006 5"/></svg>