<svg xmlns="http://www.w3.org/2000/svg" width="24" height="24" viewBox="0 0 24 24"><g fill="currentColor"><path d="M14 3a1 1 0 011 1v11.001h-.092a3 3 0 00-2.03 5.12.515.515 0 01-.363.879H6a3 3 0 01-3-3V6a3 3 0 013-3z"/><path d="M18 3a1 1 0 011 1v14.584l1.293-1.291a1 1 0 011.32-.083l.094.083a1 1 0 010 1.414l-3 3a1 1 0 01-.112.097l-.11.071-.114.054-.105.035-.149.03L18 22l-.075-.003-.126-.017-.111-.03-.111-.044-.098-.052-.096-.067-.09-.08-3-3a1 1 0 011.414-1.414L17 18.586V4a1 1 0 011-1"/></g></svg>