<svg xmlns="http://www.w3.org/2000/svg" width="24" height="24" viewBox="0 0 24 24"><g fill="currentColor"><path d="M3 14a1 1 0 001 1h11.001v-.092a3 3 0 015.12-2.03.515.515 0 00.879-.363V6a3 3 0 00-3-3H6a3 3 0 00-3 3z"/><path d="M3 18a1 1 0 001 1h14.584l-1.291 1.293a1 1 0 00-.083 1.32l.083.094a1 1 0 001.414 0l3-3q.054-.053.097-.112l.071-.11.054-.114.035-.105.03-.149L22 18l-.003-.075-.017-.126-.03-.111-.044-.111-.052-.098-.067-.096-.08-.09-3-3a1 1 0 00-1.414 1.414L18.586 17H4a1 1 0 00-1 1"/></g></svg>