<svg xmlns="http://www.w3.org/2000/svg" width="24" height="24" viewBox="0 0 24 24"><path fill="currentColor" d="M11.292 2.61c.396.318.65.78.703 1.286L12 4v4a1 1 0 01-.748.968 3.1 3.1 0 103.78 3.78A1 1 0 0116 12h3.8a2 2 0 012 2 1 1 0 01-.026.226 10 10 0 11-12-12l.057-.01.052-.01a1.9 1.9 0 011.409.404m3.703-.11.045.002.067.004.081.014.032.004.072.022.04.01a10 10 0 016.003 5.818l.108.294A1 1 0 0120.5 10H16a1 1 0 01-.76-.35 8 8 0 00-.89-.89A1 1 0 0114 8V3.5q.001-.119.026-.23l.03-.102a1 1 0 01.168-.299l.03-.033.039-.043a1 1 0 01.089-.08l.051-.034.03-.023.045-.025.052-.03a1 1 0 01.435-.101"/></svg>