<svg xmlns="http://www.w3.org/2000/svg" width="24" height="24" viewBox="0 0 24 24"><path fill="currentColor" d="M3 2a1 1 0 011 1v17h17a1 1 0 01.993.883L22 21a1 1 0 01-1 1H3a1 1 0 01-1-1V3a1 1 0 011-1m18.97.757a1 1 0 01-.727 1.213l-5.256 1.314a3 3 0 01-.55 1.465l1.768 2.358A3.003 3.003 0 0121 12a3 3 0 01-5.436 1.751l-3.57 1.428A3 3 0 016 15l.005-.176a3 3 0 015.43-1.576l3.57-1.428.015-.17c.06-.518.253-.996.542-1.4l-1.767-2.357A3.003 3.003 0 0110 5l.005-.176a3 3 0 015.497-1.48l5.255-1.314a1 1 0 011.213.727"/></svg>