<svg xmlns="http://www.w3.org/2000/svg" width="24" height="24" viewBox="0 0 24 24"><path fill="currentColor" d="M17.997 4.17A3 3 0 0120 7v12a3 3 0 01-3 3H7a3 3 0 01-3-3V7a3 3 0 012.003-2.83A4 4 0 0010 8h4a4 4 0 003.98-3.597zm-7.29 7.123a1 1 0 00-1.414 0l-.083.094a1 1 0 00.083 1.32L10.585 14l-1.292 1.293a1 1 0 000 1.414l.094.083a1 1 0 001.32-.083L12 15.414l1.293 1.293a1 1 0 001.414 0l.083-.094a1 1 0 00-.083-1.32L13.414 14l1.293-1.293a1 1 0 000-1.414l-.094-.083a1 1 0 00-1.32.083L12 12.585zM14 2a2 2 0 110 4h-4a2 2 0 110-4z"/></svg>