<svg xmlns="http://www.w3.org/2000/svg" width="24" height="24" viewBox="0 0 24 24"><path fill="currentColor" d="M3 5a1 1 0 011-1 1 1 0 011.993-.117L6 4a1 1 0 01.117 1.993L6 6a1 1 0 11-2 0 1 1 0 01-1-1m7.53-1.243a1 1 0 111.94.486l-.5 2a1 1 0 11-1.94-.486zM17 5a1 1 0 011-1 1 1 0 011.993-.117L20 4a1 1 0 01.117 1.993L20 6a1 1 0 01-2 0 1 1 0 01-1-1M8.19 9.293l6.517 6.518a1 1 0 01-.29 1.617l-9.573 4.387a2 2 0 01-2.661-2.652l4.39-9.58a1 1 0 011.616-.29m7.517-1a1 1 0 010 1.414l-1 1a1 1 0 01-1.414-1.414l1-1a1 1 0 011.414 0m4.05 3.237a1 1 0 01.486 1.94l-2 .5a1 1 0 01-.486-1.94zM17 19a1 1 0 011-1 1 1 0 011.993-.117L20 18a1 1 0 01.117 1.993L20 20a1 1 0 01-2 0 1 1 0 01-1-1"/></svg>