<svg xmlns="http://www.w3.org/2000/svg" width="24" height="24" viewBox="0 0 24 24"><path fill="currentColor" d="M20 3a1 1 0 011 1v.01a1 1 0 01-2 0V4a1 1 0 011-1m0 16a1 1 0 011 1v.01a1 1 0 01-2 0V20a1 1 0 011-1m0-4a1 1 0 011 1v.01a1 1 0 01-2 0V16a1 1 0 011-1m0-4a1 1 0 011 1v.01a1 1 0 01-2 0V12a1 1 0 011-1m0-4a1 1 0 011 1v.01a1 1 0 01-2 0V8a1 1 0 011-1m-5-4a2 2 0 012 2v14a2 2 0 01-2 2H9a2 2 0 01-2-2V5a2 2 0 012-2zM4 3a1 1 0 011 1v.01a1 1 0 11-2 0V4a1 1 0 011-1m0 16a1 1 0 011 1v.01a1 1 0 01-2 0V20a1 1 0 011-1m0-4a1 1 0 011 1v.01a1 1 0 01-2 0V16a1 1 0 011-1m0-4a1 1 0 011 1v.01a1 1 0 01-2 0V12a1 1 0 011-1m0-4a1 1 0 011 1v.01a1 1 0 11-2 0V8a1 1 0 011-1"/></svg>