<svg xmlns="http://www.w3.org/2000/svg" width="24" height="24" viewBox="0 0 24 24"><path fill="currentColor" d="M10.003 2.04a3.53 3.53 0 012.602.62l.09.07.149-.11a3.53 3.53 0 013.044-.462l.207.072a3.53 3.53 0 011.99 1.903l.014.031.045-.004a3.53 3.53 0 012.624.879l.153.144.358.358c1.976 1.977-.32 6.748-4.655 11.083-4.336 4.335-9.106 6.632-11.083 4.655l-.382-.382-.135-.145a3.53 3.53 0 01-.87-2.556l.01-.1-.162-.072A3.53 3.53 0 012.164 15.9l-.055-.192a3.53 3.53 0 01.56-2.937l.062-.079-.07-.092a3.53 3.53 0 01-.644-2.401l.025-.2a3.53 3.53 0 011.707-2.505l.046-.026-.005-.14a3.53 3.53 0 01.885-2.345l.15-.16.159-.149A3.53 3.53 0 017.33 3.79l.14.004.026-.046a3.53 3.53 0 012.308-1.67z"/></svg>