<svg xmlns="http://www.w3.org/2000/svg" width="24" height="24" viewBox="0 0 24 24"><path fill="currentColor" d="M7.233 6a3 3 0 012.006.77L18.384 15H19.5a3.5 3.5 0 013.495 3.308L23 18.5a3.5 3.5 0 01-3.5 3.5h-2.733a3 3 0 01-2.006-.77L5.617 13H4.5a3.5 3.5 0 01-3.495-3.308L1 9.5A3.5 3.5 0 014.5 6zM18 2a1 1 0 011 1v4.584l1.293-1.291a1 1 0 011.32-.083l.094.083a1 1 0 010 1.414l-3 3a1 1 0 01-.112.097l-.11.071-.114.054-.105.035-.149.03L18 11l-.075-.003-.126-.017-.111-.03-.111-.044-.098-.052-.096-.067-.09-.08-3-3a1 1 0 111.414-1.414L17 7.586V3a1 1 0 011-1"/></svg>