<svg xmlns="http://www.w3.org/2000/svg" width="24" height="24" viewBox="0 0 24 24"><path fill="currentColor" d="m12 2 .117.007a1 1 0 01.876.876L13 3v4l.005.15a2 2 0 001.838 1.844L15 9h4l.117.007a1 1 0 01.876.876L20 10v9a3 3 0 01-2.824 2.995L17 22H7a3 3 0 01-2.995-2.824L4 19V5a3 3 0 012.824-2.995L7 2zM9 13a1 1 0 000 2 2 2 0 011.995 1.85L11 17a1 1 0 002 0 4 4 0 00-4-4m0-3a1 1 0 000 2 5 5 0 015 5 1 1 0 002 0 7 7 0 00-7-7m.01 6H9a1 1 0 00-.117 1.993L9.01 18a1 1 0 000-2m5.989-13.001L19 7h-4z"/></svg>