<svg xmlns="http://www.w3.org/2000/svg" width="24" height="24" viewBox="0 0 24 24"><g fill="currentColor"><path d="m12 2 .117.007a1 1 0 01.876.876L13 3v4l.005.15a2 2 0 001.838 1.844L15 9h4l.117.007a1 1 0 01.876.876L20 10v9a3 3 0 01-2.824 2.995L17 22H7a3 3 0 01-2.995-2.824L4 19V5a3 3 0 012.824-2.995L7 2zm2.82 14.429a1 1 0 00-1.391-.25 2.5 2.5 0 01-2.858 0 1 1 0 00-1.142 1.642 4.5 4.5 0 005.142 0 1 1 0 00.25-1.392M10.006 12h-.01a1 1 0 000 2h.01a1 1 0 000-2m4 0h-.01a1 1 0 000 2h.01a1 1 0 000-2"/><path d="M19 7h-4l-.001-4.001z"/></g></svg>