<svg xmlns="http://www.w3.org/2000/svg" width="24" height="24" viewBox="0 0 24 24"><g fill="currentColor"><path d="m12 2 .117.007a1 1 0 01.876.876L13 3v4l.005.15a2 2 0 001.838 1.844L15 9h4l.117.007a1 1 0 01.876.876L20 10v9a3 3 0 01-2.824 2.995L17 22H7a3 3 0 01-2.995-2.824L4 19V5a3 3 0 012.824-2.995L7 2zm0 15a1 1 0 00-.993.883L11 18.01a1 1 0 001.993.117L13 18a1 1 0 00-1-1m1.136-5.727a2.5 2.5 0 00-3.037.604 1 1 0 001.434 1.389l.088-.09A.5.5 0 1112 14a1 1 0 00-.002 2 2.5 2.5 0 001.137-4.727"/><path d="M19 7h-4l-.001-4.001z"/></g></svg>