<svg xmlns="http://www.w3.org/2000/svg" width="24" height="24" viewBox="0 0 24 24"><g fill="currentColor"><path d="m12 2 .117.007a1 1 0 01.876.876L13 3v4l.005.15a2 2 0 001.838 1.844L15 9h4l.117.007a1 1 0 01.876.876L20 10v9a3 3 0 01-2.824 2.995L17 22H7a3 3 0 01-2.995-2.824L4 19V5a3 3 0 012.824-2.995L7 2zm0 8a1 1 0 00-1 1v.05a2.5 2.5 0 00.5 4.95h1a.5.5 0 110 1H10a1 1 0 000 2h1a1 1 0 002 0v-.05a2.5 2.5 0 00-.5-4.95h-1a.5.5 0 110-1H14a1 1 0 000-2h-1a1 1 0 00-1-1"/><path d="M19 7h-4l-.001-4.001z"/></g></svg>