<svg xmlns="http://www.w3.org/2000/svg" width="24" height="24" viewBox="0 0 24 24"><g fill="currentColor"><path d="m12 2 .117.007a1 1 0 01.876.876L13 3v4l.005.15a2 2 0 001.838 1.844L15 9h4l.117.007a1 1 0 01.876.876L20 10v9a3 3 0 01-2.824 2.995L17 22H7a3 3 0 01-2.995-2.824L4 19V5a3 3 0 012.824-2.995L7 2zm.555 9.168a1 1 0 00-1.387.277l-2 3-.057.097A1 1 0 0010 16h2.13l-.962 1.445a1 1 0 101.664 1.11l2-3 .057-.097A1 1 0 0014 14h-2.132l.964-1.445a1 1 0 00-.277-1.387"/><path d="M19 7h-4l-.001-4.001z"/></g></svg>