<svg xmlns="http://www.w3.org/2000/svg" width="24" height="24" viewBox="0 0 24 24"><path fill="currentColor" d="m12 2 .117.007a1 1 0 01.876.876L13 3v4l.005.15a2 2 0 001.838 1.844L15 9h4l.117.007a1 1 0 01.876.876L20 10v9a3 3 0 01-2.824 2.995L17 22H7a3 3 0 01-2.995-2.824L4 19V5a3 3 0 012.824-2.995L7 2zM9.5 9.5A1.5 1.5 0 008 11v1a6 6 0 006 6h1a1.5 1.5 0 000-3h-1l-.144.007a1.5 1.5 0 00-1.128.697l-.042.074-.022-.007a4.01 4.01 0 01-2.435-2.435l-.008-.023.075-.041A1.5 1.5 0 0011 12v-1a1.5 1.5 0 00-1.5-1.5m5.499-6.501L19 7h-4z"/></svg>