<svg xmlns="http://www.w3.org/2000/svg" width="24" height="24" viewBox="0 0 24 24"><g fill="currentColor"><path d="m12 2 .117.007a1 1 0 01.876.876L13 3v4l.005.15a2 2 0 001.838 1.844L15 9h4l.117.007a1 1 0 01.876.876L20 10v9a3 3 0 01-2.824 2.995L17 22H7a3 3 0 01-2.995-2.824L4 19V5a3 3 0 012.824-2.995L7 2zm2.334 9.23A4 4 0 009.126 14H9a1 1 0 000 2h.126a4 4 0 005.208 2.77 1 1 0 00-.668-1.885l-.156.049A2 2 0 0111.267 16H12a1 1 0 000-2h-.733q.056-.097.124-.19a2 2 0 012.275-.695l.112.032a1 1 0 00.556-1.918"/><path d="M19 7h-4l-.001-4.001z"/></g></svg>