<svg xmlns="http://www.w3.org/2000/svg" width="24" height="24" viewBox="0 0 24 24"><g fill="currentColor"><path d="M8 4a2.6 2.6 0 00-2 .957l-4.355 5.24a2.85 2.85 0 00-.007 3.598l4.368 5.256C6.505 19.651 7.23 20 8 20a2.6 2.6 0 002-.957l4.355-5.24a2.85 2.85 0 00.007-3.598L9.994 4.949A2.6 2.6 0 008 4m8.382.214a1 1 0 011.32.074l.084.094 4.576 5.823c.808.993.848 2.396.13 3.419l-.12.158-4.586 5.836a1 1 0 01-1.644-1.132l.072-.104 4.596-5.85a.845.845 0 00.06-.978l-.07-.1-4.586-5.836a1 1 0 01.168-1.404"/><path d="M12.382 4.214a1 1 0 011.32.074l.084.094 4.576 5.823c.808.993.848 2.396.13 3.419l-.12.158-4.586 5.836a1 1 0 01-1.644-1.132l.072-.104 4.596-5.85a.845.845 0 00.06-.978l-.07-.1-4.586-5.836a1 1 0 01.168-1.404"/></g></svg>