<svg xmlns="http://www.w3.org/2000/svg" width="24" height="24" viewBox="0 0 24 24"><path fill="currentColor" d="M17 2a2.995 2.995 0 012.995 2.898Q20 4.948 20 5v14a3 3 0 01-3 3H7a3 3 0 01-3-3V5a3 3 0 013-3zm-.99 15H16a1 1 0 000 2h.01a1 1 0 000-2M12.8 7.4a1 1 0 00-1.6 0l-3 4a1 1 0 000 1.2l2.988 3.984.012.016q.007.01.017.02a.5.5 0 00.077.086l.016.018.018.016q.025.024.052.043l.025.02a.5.5 0 00.084.056l.056.03q.016.01.033.018l.043.017a.4.4 0 00.074.028.9.9 0 00.305.047h.047a1 1 0 00.095-.01 1 1 0 00.163-.037l.025-.008.049-.02a.3.3 0 00.076-.034.5.5 0 00.08-.046 1 1 0 00.085-.06.5.5 0 00.086-.078l.018-.016.016-.018.043-.052.017-.02.009-.012L15.8 12.6a1 1 0 000-1.2zM8.01 5H8a1 1 0 100 2h.01a1 1 0 100-2"/></svg>