<svg xmlns="http://www.w3.org/2000/svg" width="24" height="24" viewBox="0 0 24 24"><path fill="currentColor" d="M21 8a1 1 0 010 2v11a1 1 0 01-2 0V10h-1.675q-.163 0-.325.007V21a1 1 0 01-2 0V10.355a7.8 7.8 0 00-2 .959V21a1 1 0 01-2 0v-7.748a7.8 7.8 0 00-1.051 2.064l-.735 2.205a7 7 0 01-.213.553L9 21a1 1 0 01-2 0l.001-.364A6.54 6.54 0 013 22a1 1 0 010-2 4.55 4.55 0 004.316-3.111l.735-2.205A9.775 9.775 0 0117.325 8zM10.78 4.375l2 2.5A1 1 0 0112.6 8.3l-4 3a1 1 0 01-.868.164l-1.8-.5a1 1 0 01-.727-.864l-.2-2a1 1 0 01.395-.9l4-3a1 1 0 011.38.175M20 2a1 1 0 011 1v3a1 1 0 01-1 1h-5a1 1 0 01-1-1V3a1 1 0 011-1z"/></svg>