<svg xmlns="http://www.w3.org/2000/svg" width="24" height="24" viewBox="0 0 24 24"><path fill="currentColor" d="M20.01 19a1 1 0 01.117 1.993L20 21a1 1 0 01-.117-1.993zm-16 0a1 1 0 010 2 1 1 0 01-.127-1.993m4 0a1 1 0 010 2 1 1 0 01-.127-1.993m4 0a1 1 0 01.117 1.993l-.127.007a1 1 0 01-.117-1.993zm4 0a1 1 0 01.117 1.993l-.127.007a1 1 0 01-.117-1.993zm4-16a1 1 0 01.117 1.993l-.127.007a1 1 0 01-.117-1.993zm-16 0a1 1 0 110 2 1 1 0 01-.127-1.993m4 0a1 1 0 110 2 1 1 0 01-.127-1.993m4 0a1 1 0 01.117 1.993l-.127.007a1 1 0 01-.117-1.993zm3.99 0a1 1 0 011 1 1 1 0 11-2 .01c0-.562.448-1.01 1-1.01m3 4a2 2 0 012 2v6a2 2 0 01-2 2h-14a2 2 0 01-2-2v-6a2 2 0 012-2z"/></svg>