<svg xmlns="http://www.w3.org/2000/svg" width="24" height="24" viewBox="0 0 24 24"><path fill="currentColor" d="M4 12a1 1 0 010 2H3a1 1 0 010-2zm17 0a1 1 0 010 2h-1a1 1 0 010-2zM6.307 5.893l.7.7a1 1 0 01-1.414 1.414l-.7-.7a1 1 0 011.414-1.414m12.8 0a1 1 0 010 1.414l-.7.7a1 1 0 01-1.414-1.414l.7-.7a1 1 0 011.414 0M12 3a1 1 0 011 1v1a1 1 0 01-2 0V4a1 1 0 011-1M3 16h18a1 1 0 010 2H3a1 1 0 010-2m9-8a5 5 0 014.583 7.002H7.417A5 5 0 0112 8m0 11a1 1 0 010 2H7a1 1 0 010-2zm5 0a1 1 0 010 2h-1a1 1 0 010-2z"/></svg>