<svg xmlns="http://www.w3.org/2000/svg" width="24" height="24" viewBox="0 0 24 24"><path fill="currentColor" d="M4 16a1 1 0 010 2H3a1 1 0 010-2zm17 0a1 1 0 010 2h-1a1 1 0 010-2zM6.307 9.893l.7.7a1 1 0 01-1.414 1.414l-.7-.7a1 1 0 011.414-1.414m12.8 0a1 1 0 010 1.414l-.7.7a1 1 0 01-1.414-1.414l.7-.7a1 1 0 011.414 0M12 2a1 1 0 011 1v3.584l1.293-1.291a1 1 0 011.32-.083l.094.083a1 1 0 010 1.414l-3 3a.98.98 0 01-.767.293l-.124-.017-.127-.032-.104-.04-.115-.063a1 1 0 01-.151-.114L8.293 6.707a1 1 0 011.414-1.414L11 6.585V3a1 1 0 011-1M3 20h18a1 1 0 010 2H3a1 1 0 010-2m9-8a5 5 0 014.583 7.002H7.417A5 5 0 0112 12"/></svg>