<svg xmlns="http://www.w3.org/2000/svg" width="24" height="24" viewBox="0 0 24 24"><path fill="currentColor" d="M20.555 4.168a1 1 0 01.277 1.387l-2.621 3.932 1.236.619a1 1 0 01-.894 1.788l-1.46-.73-3.876 5.815A3 3 0 118 19l.005-.176q.008-.135.027-.267l-2.587-1.725a1 1 0 011.11-1.664l2.424 1.615a2.99 2.99 0 012.464-.75l7.725-11.588a1 1 0 011.387-.277M9.988 3.769l.14.082 3.307 2.104a2.3 2.3 0 01.7 3.185l-3.094 4.81a2.3 2.3 0 01-3.17.698l-3.306-2.104a2.3 2.3 0 01-.7-3.185l3.094-4.81a2.3 2.3 0 013.029-.78"/></svg>